<svg width="25px" height="23px" viewBox="-1 0 25 23" version="1.1" xmlns="http://www.w3.org/2000/svg" xmlns:xlink="http://www.w3.org/1999/xlink">
    <path d="M6.41500495,3.34173671 C6.15240096,2.80669455 5.6536883,1.431972 6.55409324,0.00195138593 C6.6130596,0.106559528 8.26528541,0.191435385 9.74849378,1.32104114 C9.80827894,1.36657329 9.85803828,1.41209928 9.8984829,1.45754565 C11.5567747,1.00412897 12.997296,1.00883076 12.997296,1.00883076 C12.997296,1.00883076 14.5550635,1.03827062 16.3560997,1.53011578 C16.4032328,1.45996993 16.4717324,1.3895372 16.5642322,1.31908975 C18.0474405,0.189483999 19.6996664,0.104608142 19.7586327,0 C20.6297601,1.38352208 20.191278,2.71528376 19.9240302,3.28495666 C20.9651164,4.17545884 21.7100076,5.41386544 21.7466733,7.1358897 C21.4576638,13.1245785 15.8775376,12.610379 15.8775376,12.610379 L11.2495552,12.7284751 C11.2495552,12.7284751 5,12.9864618 5,6.98459491 C5,5.37629299 5.57425608,4.20083716 6.41500495,3.34173671 Z" id="Combined-Shape" stroke="none" fill="#4A4A4A" fill-rule="evenodd"></path>
    <path d="M11.8842727,12 C11.8842727,12 9.68601409,12.4847807 9.68601409,13.6608724 C9.68601409,14.8369641 5.49444165,19.7447222 1.83228416,14.4052898" id="Path-5" stroke="#4A4A4A" stroke-width="1" fill="none"></path>
    <polyline id="Triangle" stroke="none" fill="#4A4A4A" fill-rule="evenodd" points="0.445461151 12 3.93380896 13.2503242 -1.19941258e-14 15.4390359"></polyline>
    <polyline id="Triangle" stroke="none" fill="#4A4A4A" fill-rule="evenodd" points="11.5038395 22 11 19 14.5183495 20.805895"></polyline>
    <path d="M12.9593949,12 C12.9593949,12 11.7500313,12.4547237 11.7500313,14.0911934 C11.7500313,15.7276631 11.7184341,19.1136881 10,19.6630467" id="Path-6" stroke="#4A4A4A" stroke-width="1" fill="none"></path>
    <path d="M13.4951042,12 C13.4951042,12 13.90839,19.338868 12.7001639,20.3453311" id="Path-7" stroke="#4A4A4A" stroke-width="1" fill="none"></path>
    <path d="M15,12 C15,12 16.6275725,12.3335547 17.1430425,13.4148452 C17.2400282,13.6182901 17.2976449,13.8482051 17.2976449,14.107349 C17.2976449,15.7438187 18.0654131,16.0010655 19.7838471,16.5504241" id="Path-6" stroke="#4A4A4A" stroke-width="1" fill="none"></path>
    <path d="M15,12 C15,12 15.3228301,19.7692603 17.2114108,20.5422103" id="Path-7" stroke="#4A4A4A" stroke-width="1" fill="none"></path>
    <polyline id="Triangle" stroke="none" fill="#4A4A4A" fill-rule="evenodd" points="18.6928563 22 15.4813472 21.520457 18.4002651 19"></polyline>
    <ellipse id="Oval" stroke="#4A4A4A" stroke-width="1" fill="none" cx="21.4177756" cy="16.4177756" rx="1.41777558" ry="1.41777558"></ellipse>
    <ellipse id="Oval" stroke="#4A4A4A" stroke-width="1" fill="none" cx="8.41777558" cy="20.4177756" rx="1.41777558" ry="1.41777558"></ellipse>
</svg>